<?xml version="1.0" encoding="UTF-8" standalone="no"?>
<svg
   xmlns:dc="http://purl.org/dc/elements/1.1/"
   xmlns:cc="http://creativecommons.org/ns#"
   xmlns:rdf="http://www.w3.org/1999/02/22-rdf-syntax-ns#"
   xmlns:svg="http://www.w3.org/2000/svg"
   xmlns="http://www.w3.org/2000/svg"
   xmlns:sodipodi="http://sodipodi.sourceforge.net/DTD/sodipodi-0.dtd"
   xmlns:inkscape="http://www.inkscape.org/namespaces/inkscape"
   width="210mm"
   height="297mm"
   viewBox="0 0 210 297"
   version="1.1"
   id="svg8"
   inkscape:version="1.0.2 (e86c870879, 2021-01-15, custom)"
   sodipodi:docname="dessin.svg"
   inkscape:export-filename="C:\laragon\www\scrum\blind_test\Blind_Test\images\imagesCategories\dessin5.png"
   inkscape:export-xdpi="96"
   inkscape:export-ydpi="96">
  <defs
     id="defs2" />
  <sodipodi:namedview
     id="base"
     pagecolor="#ffffff"
     bordercolor="#666666"
     borderopacity="1.0"
     inkscape:pageopacity="0.0"
     inkscape:pageshadow="2"
     inkscape:zoom="0.35"
     inkscape:cx="357.14286"
     inkscape:cy="585.71429"
     inkscape:document-units="mm"
     inkscape:current-layer="layer3"
     inkscape:document-rotation="0"
     showgrid="false"
     inkscape:window-width="2560"
     inkscape:window-height="1377"
     inkscape:window-x="-8"
     inkscape:window-y="-8"
     inkscape:window-maximized="1" />
  <metadata
     id="metadata5">
    <rdf:RDF>
      <cc:Work
         rdf:about="">
        <dc:format>image/svg+xml</dc:format>
        <dc:type
           rdf:resource="http://purl.org/dc/dcmitype/StillImage" />
        <dc:title></dc:title>
      </cc:Work>
    </rdf:RDF>
  </metadata>
  <g
     inkscape:label="Calque 1"
     inkscape:groupmode="layer"
     id="layer1"
     style="display:inline">
    <rect
       style="fill:#ffb380;stroke:none;stroke-width:1.2"
       id="rect1403"
       width="350"
       height="300"
       x="-55.184528"
       y="-0.75595105" />
    <path
       style="fill:#333333;stroke:none;stroke-width:4.53543;stroke-opacity:1"
       d="M -208.57143,564.28571 V -1.4285714 H 452.85714 1114.2857 V 564.28571 1130 H 452.85714 -208.57143 Z m 756.26946,328.73738 c 78.13317,-16.75143 137.48826,-48.47835 192.69968,-103.00332 46.85598,-46.2734 75.34906,-94.82291 91.39835,-155.73406 5.92574,-22.48974 6.77537,-32.16337 6.77537,-77.14285 0,-44.97949 -0.84963,-54.65312 -6.77537,-77.14286 C 815.77089,419.18043 787.2966,370.63334 740.39771,324.17089 723.67897,307.60774 700.6462,287.88034 689.2138,280.33225 645.02866,251.15954 593.28146,229.95496 540.77114,219.50454 503.09209,212.00578 422.24729,212.68256 385.19211,220.80695 307.05123,237.93942 248.03223,268.83277 193.56049,321.11606 147.28829,365.5292 115.72726,418.91631 99.632514,480 c -5.925743,22.48974 -6.775371,32.16337 -6.775371,77.14286 0,44.97948 0.849628,54.65311 6.775371,77.14285 16.025176,60.81958 44.499456,109.36666 91.398346,155.82912 32.9764,32.66948 56.21374,49.41488 96.112,69.26057 40.96451,20.37606 84.3142,33.53777 129.33988,39.26986 30.3182,3.85971 101.14363,0.82505 131.21529,-5.62217 z"
       id="path2010"
       transform="scale(0.26458333)"
       inkscape:export-xdpi="96"
       inkscape:export-ydpi="96" />
  </g>
  <g
     inkscape:groupmode="layer"
     id="layer3"
     inkscape:label="Calque 2"
     style="display:inline">
    <ellipse
       style="fill:#ffffff;stroke:none;stroke-width:1.2;stroke-opacity:1"
       id="path1414"
       cx="123.22025"
       cy="147.41055"
       rx="99.029778"
       ry="90.714149" />
  </g>
  <g
     inkscape:groupmode="layer"
     id="layer4"
     inkscape:label="Calque 3">
    <path
       style="fill:#ffffff;stroke:none;stroke-width:4.53543;stroke-opacity:1"
       d=""
       id="path2026"
       transform="scale(0.26458333)" />
    <path
       style="fill:#ffffff;stroke:none;stroke-width:4.53543;stroke-opacity:1"
       d=""
       id="path2028"
       transform="scale(0.26458333)" />
    <path
       style="fill:#ffffff;stroke:none;stroke-width:4.53543;stroke-opacity:1"
       d=""
       id="path2030"
       transform="scale(0.26458333)" />
  </g>
</svg>
